# xmcd CD database file
#
# Track frame offsets:
#	150
#	17332
#	35445
#	54697
#	72620
#	91772
#	113087
#	128237
#	145175
#	164537
#	184225
#	199605
#	220102
#
# Disc length: 3208 seconds
#
# Revision: 2
# Processed by: cddbd v1.5.1PL0 Copyright (c) Steve Scherf et al.
# Submitted via: CD2WAV32(EN) R3.19
#
DISCID=b70c860d
DTITLE=Judy Cheeks - Respect
DYEAR=1900
DGENRE=
TTITLE0=Reach
TTITLE1=So In Love (The Real Deal)
TTITLE2=Could It Be (Falling In Love)
TTITLE3=This Time
TTITLE4=Forgive And Forget
TTITLE5=You're The Story Of My Life
TTITLE6=Respect
TTITLE7=Joy To The World
TTITLE8=As Long As You're Good To Me
TTITLE9=Different Love
TTITLE10=I'm Only Here
TTITLE11=Wishing On The Same Star
TTITLE12=Single Tear
EXTD=
EXTT0=
EXTT1=
EXTT2=
EXTT3=
EXTT4=
EXTT5=
EXTT6=
EXTT7=
EXTT8=
EXTT9=
EXTT10=
EXTT11=
EXTT12=
PLAYORDER=
